<?xml version="1.0" encoding="utf-8"?>
<!-- Generator: Adobe Illustrator 16.0.0, SVG Export Plug-In . SVG Version: 6.00 Build 0)  -->
<!DOCTYPE svg PUBLIC "-//W3C//DTD SVG 1.1//EN" "http://www.w3.org/Graphics/SVG/1.1/DTD/svg11.dtd">
<svg version="1.1" id="Layer_1" xmlns="http://www.w3.org/2000/svg" xmlns:xlink="http://www.w3.org/1999/xlink" x="0px" y="0px"
	 width="48px" height="48px" viewBox="0 0 48 48" enable-background="new 0 0 48 48" xml:space="preserve">
<path fill="#E6E6E6" d="M7.683,46.601l10.545-10.545c2.974,1.836,6.441,2.945,10.191,2.945c10.771,0,19.5-8.73,19.5-19.5
	c0-10.77-8.729-19.5-19.5-19.5c-10.77,0-19.5,8.73-19.5,19.5c0,3.75,1.109,7.218,2.943,10.188L1.317,40.237
	c-1.758,1.758-1.758,4.604,0,6.363C3.075,48.358,5.925,48.358,7.683,46.601z M14.919,19.501c0-7.455,6.045-13.5,13.5-13.5
	s13.5,6.045,13.5,13.5s-6.045,13.5-13.5,13.5S14.919,26.956,14.919,19.501z"/>
</svg>
